<?xml version="1.0" standalone="no"?>
<!DOCTYPE svg PUBLIC "-//W3C//DTD SVG 20010904//EN"
 "http://www.w3.org/TR/2001/REC-SVG-20010904/DTD/svg10.dtd">
<svg version="1.0" xmlns="http://www.w3.org/2000/svg"
 width="672.000000pt" height="371.000000pt" viewBox="0 0 672.000000 371.000000"
 preserveAspectRatio="xMidYMid meet">

<g transform="translate(0.000000,371.000000) scale(0.100000,-0.100000)"
fill="#000000" stroke="none">
<path d="M2140 2825 l0 -175 179 0 180 0 6 43 c3 23 5 101 3 172 l-3 130 -182
3 -183 2 0 -175z"/>
<path d="M3930 2860 l0 -140 185 0 185 0 0 140 0 140 -185 0 -185 0 0 -140z"/>
<path d="M4980 2663 c-46 -6 -151 -38 -189 -58 -138 -71 -241 -188 -297 -335
-25 -67 -28 -88 -27 -195 0 -104 3 -130 26 -192 70 -196 247 -346 459 -388
102 -20 156 -19 258 6 218 52 383 197 452 397 32 95 32 259 0 353 -64 187
-209 327 -402 389 -62 20 -213 32 -280 23z m215 -361 c149 -77 182 -283 64
-401 -72 -72 -172 -95 -271 -62 -134 45 -206 180 -166 315 15 51 111 150 159
165 53 16 168 7 214 -17z"/>
<path d="M1525 2639 c-354 -51 -571 -393 -465 -734 53 -169 194 -309 380 -375
94 -34 285 -34 383 -1 83 28 140 59 193 105 l39 35 -118 116 c-113 112 -119
116 -137 100 -30 -27 -90 -44 -159 -45 -89 0 -136 17 -186 67 -95 95 -98 240
-7 337 28 29 115 76 143 76 37 0 49 32 50 136 0 96 7 136 22 135 4 -1 7 1 7 4
0 3 0 10 0 15 0 6 -6 10 -14 10 -7 0 -19 7 -26 15 -14 16 -17 17 -105 4z"/>
<path d="M2765 2631 c-3 -5 -1 -12 5 -16 5 -3 10 1 10 9 0 18 -6 21 -15 7z"/>
<path d="M2960 2077 c0 -310 2 -566 4 -568 2 -2 86 -3 185 -1 l181 3 0 288 0
288 31 61 c54 110 145 160 302 169 l97 6 0 160 0 160 -102 -5 c-132 -6 -196
-33 -279 -119 -32 -32 -61 -59 -64 -59 -3 0 -5 41 -5 90 l0 90 -175 0 -175 0
0 -563z"/>
<path d="M3930 2077 c0 -310 2 -566 4 -568 2 -2 86 -3 185 -1 l181 3 0 564 0
565 -185 0 -185 0 0 -563z"/>
<path d="M2154 2336 c-13 -22 -15 -59 -12 -273 l3 -248 36 -75 c47 -97 93
-148 171 -191 l63 -34 188 -3 187 -4 0 145 0 144 -96 5 c-168 9 -185 37 -187
312 -1 105 -6 197 -10 204 -6 9 -52 12 -165 13 -86 1 -149 3 -139 6 23 6 22
23 -3 23 -11 0 -27 -11 -36 -24z"/>
<path d="M2765 2350 c-3 -5 -1 -10 4 -10 6 0 11 5 11 10 0 6 -2 10 -4 10 -3 0
-8 -4 -11 -10z"/>
<path d="M3691 1266 c-19 -22 2 -26 28 -5 22 18 22 19 3 19 -11 0 -25 -6 -31
-14z"/>
<path d="M3014 1216 c-82 -36 -86 -144 -7 -185 32 -16 88 -13 112 7 22 17 21
17 -27 14 -42 -3 -53 0 -72 20 -18 19 -21 31 -17 67 3 24 11 47 18 52 21 13
83 11 97 -3 9 -9 12 -7 12 9 0 33 -60 43 -116 19z"/>
<path d="M3221 1213 c-40 -20 -63 -68 -55 -112 9 -45 46 -73 101 -78 43 -5 52
-2 80 24 18 17 35 42 39 58 10 40 -19 93 -61 111 -44 18 -62 17 -104 -3z m98
-27 c19 -23 25 -85 11 -111 -14 -25 -48 -39 -75 -29 -20 8 -45 56 -45 86 0 39
27 68 64 68 19 0 39 -6 45 -14z"/>
<path d="M3435 1124 l0 -105 70 3 c55 2 70 6 73 19 2 14 -5 15 -48 11 l-51 -5
2 88 c2 86 1 88 -22 91 -24 2 -24 2 -24 -102z"/>
<path d="M3615 1124 l0 -104 78 0 c67 0 77 2 77 18 0 14 -8 17 -53 14 l-54 -4
1 34 c1 32 2 33 44 32 28 0 42 4 42 12 0 8 -16 14 -42 16 -38 3 -43 6 -43 28
0 24 3 25 53 25 41 0 52 3 50 15 -3 12 -20 15 -78 17 l-75 1 0 -104z"/>
<path d="M3880 1223 c-40 -15 -70 -46 -76 -79 -13 -72 34 -124 115 -124 63 0
71 7 71 56 0 39 -2 44 -23 44 -20 0 -23 -4 -19 -35 4 -34 3 -35 -31 -35 -44 0
-67 28 -67 82 0 53 22 71 82 66 34 -4 48 -1 48 7 0 20 -63 32 -100 18z"/>
<path d="M4063 1223 c-22 -4 -23 -9 -23 -104 0 -99 0 -99 25 -99 l25 0 0 105
c0 58 -1 104 -2 104 -2 -1 -13 -4 -25 -6z"/>
<path d="M4194 1213 c-32 -16 -64 -59 -64 -88 0 -53 60 -105 120 -105 118 0
152 151 44 196 -42 17 -61 17 -100 -3z m100 -35 c34 -48 8 -138 -40 -138 -59
0 -93 95 -51 148 16 21 74 15 91 -10z"/>
<path d="M4477 1126 l2 -101 75 -3 c67 -3 76 -1 76 15 0 16 -8 18 -56 15 l-55
-4 3 34 c3 32 4 33 46 30 33 -2 42 1 42 14 0 11 -9 15 -32 14 -55 -3 -58 -1
-58 31 l0 31 55 -4 c44 -2 55 0 53 11 -2 11 -22 15 -78 16 l-75 2 2 -101z"/>
<path d="M4585 964 c-9 -9 -14 -18 -11 -21 7 -7 46 16 46 27 0 15 -17 12 -35
-6z"/>
<path d="M2965 815 l0 -105 78 0 c67 0 77 2 77 18 0 14 -8 16 -50 14 -50 -4
-50 -4 -50 27 0 29 2 31 40 31 32 0 40 4 40 18 0 14 -7 17 -40 14 -39 -4 -40
-3 -40 28 l0 32 50 -4 c42 -2 50 0 50 15 0 15 -10 17 -77 17 l-78 0 0 -105z"/>
<path d="M3175 895 c-41 -40 -30 -62 53 -104 45 -23 50 -32 27 -51 -17 -14
-62 -6 -87 17 -17 15 -18 14 -18 -6 0 -39 76 -54 130 -26 55 28 35 77 -43 110
-58 24 -46 73 15 58 12 -3 29 -10 36 -16 9 -7 12 -4 12 11 0 40 -87 46 -125 7z"/>
<path d="M3404 910 c-63 -25 -85 -120 -40 -165 30 -30 65 -39 111 -31 48 9 53
25 7 23 -23 0 -50 6 -66 16 -47 31 -31 135 22 138 31 2 57 -3 70 -13 9 -8 12
-5 12 10 0 11 -7 23 -16 26 -22 8 -75 6 -100 -4z"/>
<path d="M3614 910 c-55 -22 -79 -93 -50 -149 42 -80 180 -62 207 28 10 34 9
44 -8 73 -30 52 -91 72 -149 48z m101 -51 c21 -41 18 -72 -10 -103 -30 -32
-49 -33 -80 -1 -18 17 -25 35 -25 62 0 46 8 59 40 71 35 13 59 4 75 -29z"/>
<path d="M3818 815 l-3 -105 73 0 c62 0 72 2 72 18 0 14 -7 17 -44 14 l-43 -4
-7 65 c-3 37 -2 76 4 91 9 24 8 26 -20 26 l-29 0 -3 -105z"/>
<path d="M4060 898 c-8 -21 -24 -58 -66 -155 -13 -31 -13 -33 5 -33 12 0 21 9
25 24 7 29 20 34 69 28 28 -3 41 -11 49 -28 7 -15 20 -24 35 -24 12 0 23 1 23
3 0 2 -18 43 -40 92 -22 50 -40 96 -40 103 0 22 -50 14 -60 -10z m45 -68 c20
-38 20 -37 -15 -42 -38 -6 -45 5 -30 43 16 37 26 37 45 -1z"/>
<path d="M4290 902 c0 -15 6 -18 30 -14 l30 4 0 -91 0 -91 28 0 27 0 -3 90 -4
90 36 0 c25 0 36 4 36 15 0 12 -17 15 -90 15 -80 0 -90 -2 -90 -18z"/>
<path d="M4502 815 l-2 -105 75 0 c43 0 75 4 75 10 0 6 0 13 0 17 0 4 -23 6
-51 4 l-50 -3 3 34 c3 31 5 33 41 32 28 -1 37 3 37 15 0 13 -8 16 -40 13 -39
-4 -40 -3 -40 28 l0 32 50 -4 c42 -2 50 0 50 15 0 15 -10 17 -73 17 l-73 0 -2
-105z"/>
<path d="M4754 910 c-52 -21 -81 -100 -54 -151 13 -24 61 -49 94 -49 30 0 76
20 76 32 0 5 -5 6 -11 3 -18 -12 -79 -8 -95 6 -24 19 -36 59 -28 92 8 36 54
59 96 47 30 -9 50 6 27 21 -18 11 -77 10 -105 -1z"/>
<path d="M4914 904 c3 -9 6 -56 6 -105 0 -78 2 -89 18 -89 15 0 17 9 14 72
l-3 73 69 -75 c39 -41 72 -73 75 -70 3 3 7 51 9 108 3 97 2 102 -17 102 -18 0
-20 -5 -17 -60 2 -33 0 -60 -5 -60 -4 0 -30 27 -58 60 -35 42 -57 60 -74 60
-17 0 -22 -4 -17 -16z"/>
<path d="M5158 815 l-3 -105 25 0 25 0 0 105 c0 101 -1 105 -22 105 -21 0 -22
-5 -25 -105z"/>
<path d="M5312 903 c-49 -24 -69 -71 -53 -123 10 -32 20 -45 46 -56 42 -17 76
-18 110 -2 35 16 31 28 -6 18 -74 -22 -135 53 -98 121 16 31 56 42 90 25 27
-13 29 -13 29 4 0 33 -63 40 -118 13z"/>
<path d="M5533 883 c-8 -21 -28 -67 -44 -102 -16 -35 -29 -65 -29 -67 0 -2 9
-4 20 -4 13 0 20 7 20 19 0 32 26 45 73 35 33 -7 43 -14 45 -32 3 -17 10 -22
33 -22 28 0 39 13 21 24 -5 3 -26 46 -47 96 -44 104 -65 116 -92 53z m49 -58
c8 -33 10 -30 -20 -39 -28 -9 -37 10 -22 48 12 34 31 30 42 -9z"/>
</g>
</svg>
